<svg id="Layer_1" data-name="Layer 1" xmlns="http://www.w3.org/2000/svg" viewBox="0 0 44.45 29.66"><defs><style>.cls-1{fill:#fff;}</style></defs><polygon class="cls-1" points="0.48 27.37 7.99 27.37 7.99 26.68 0.34 26.68 0.48 27.37"/><polygon class="cls-1" points="36.78 27.37 44.29 27.37 44.44 26.68 36.78 26.68 36.78 27.37"/><polygon class="cls-1" points="14.06 29.66 15.85 29.66 15.85 28.96 14.76 28.96 14.76 27.37 15.57 27.37 15.57 26.68 14.76 26.68 14.76 24.96 15.85 24.96 15.85 24.27 14.06 24.27 14.06 29.66"/><polygon class="cls-1" points="11.52 24.27 10.83 24.27 10.83 29.66 12.62 29.66 12.62 28.96 11.52 28.96 11.52 24.27"/><path class="cls-1" d="M19,24.27H17.94a.48.48,0,0,0-.46.46v4.48a.46.46,0,0,0,.46.45H19a.46.46,0,0,0,.46-.45V26.68h-.91l-.15.69h.37V29h-.58V25h.58v.69l.7-.15v-.78a.47.47,0,0,0-.14-.33A.46.46,0,0,0,19,24.27Z"/><polygon class="cls-1" points="21.09 29.66 22.88 29.66 22.88 28.96 21.79 28.96 21.79 27.37 22.6 27.37 22.6 26.68 21.79 26.68 21.79 24.96 22.88 24.96 22.88 24.27 21.09 24.27 21.09 29.66"/><polygon class="cls-1" points="26.03 27.37 25.14 24.27 24.52 24.27 24.52 29.66 25.21 29.66 25.21 26.68 26.13 29.66 26.72 29.66 26.72 24.27 26.03 24.27 26.03 27.37"/><path class="cls-1" d="M29.87,24.27H28.36v5.39h1.51a.48.48,0,0,0,.46-.46V24.73A.47.47,0,0,0,29.87,24.27ZM29.64,29h-.59V25h.59Z"/><path class="cls-1" d="M33.48,26.68h-.82V25h.59v.69l.69-.14v-.79a.48.48,0,0,0-.13-.32.42.42,0,0,0-.33-.13h-1a.43.43,0,0,0-.34.13.41.41,0,0,0-.12.33v2.19a.46.46,0,0,0,.46.45h.82V29h-.59v-.73l-.69.15v.82a.46.46,0,0,0,.46.45h1a.46.46,0,0,0,.46-.45V27.15A.47.47,0,0,0,33.48,26.68Z"/><polygon class="cls-1" points="34.76 24.36 34.92 24.36 34.92 24.96 35.01 24.96 35.01 24.36 35.17 24.36 35.17 24.27 34.76 24.27 34.76 24.36"/><polygon class="cls-1" points="35.48 24.61 35.37 24.27 35.28 24.27 35.28 24.96 35.37 24.96 35.37 24.58 35.44 24.81 35.51 24.81 35.59 24.58 35.59 24.96 35.67 24.96 35.67 24.27 35.59 24.27 35.48 24.61"/><path class="cls-1" d="M2.6,0,1,15.24H.66L0,18.44H.66L.31,21.6h3l.27-3.15H6.23l.27,3.13H9.43L7.14,0ZM3.82,15.32l1-12.17L5.89,15.32Z"/><path class="cls-1" d="M18,0H12.44l-.67,3.12h.67v18.4h3.24V15.31h2.25a2.65,2.65,0,0,0,2.65-2.64v-10A2.65,2.65,0,0,0,18,0Zm-.7,12.16H15.76v-9h1.51Z"/><path class="cls-1" d="M27.53,12.36h3V9.22h-3V3.14h4.17V0H24.26l-.67,3.13h.65V21.57h7.48V18.45H27.53Z"/><polygon class="cls-1" points="34.49 21.58 37.96 21.58 39.47 14.79 41.12 21.58 44.45 21.58 42 11.54 42.01 10.05 44.45 0.02 40.98 0.02 39.47 6.81 37.84 0 35.26 0 34.58 3.13 35.26 3.13 36.93 10.03 36.93 11.55 34.49 21.58"/></svg>