<svg id="Layer_1" data-name="Layer 1" xmlns="http://www.w3.org/2000/svg" viewBox="0 0 992.79 94.87"><defs><style>.cls-1{fill:#fff;}</style></defs><path class="cls-1" d="M149.76,62,126.43,15.92a.73.73,0,0,0-.66-.41H97.62A.75.75,0,0,0,97,16.59L135.6,92a.74.74,0,0,0,.65.4h28.33a.74.74,0,0,0,.65-.4l38.64-75.45a.75.75,0,0,0-.66-1.08H175.06a.73.73,0,0,0-.66.41L151.07,62A.73.73,0,0,1,149.76,62Z"/><path class="cls-1" d="M204.65,38.54V91.7a.74.74,0,0,0,.74.74h77a.74.74,0,0,0,.73-.74V73a.74.74,0,0,0-.73-.74H231.56a.74.74,0,0,1-.74-.73V63.1a.74.74,0,0,1,.74-.73h42.12a.74.74,0,0,0,.73-.74V46.32a.73.73,0,0,0-.73-.73H231.56a.74.74,0,0,1-.74-.74v-8.4a.74.74,0,0,1,.74-.74H282.4a.74.74,0,0,0,.73-.74V16.25a.74.74,0,0,0-.73-.74H216.79a.74.74,0,0,0-.66.41l-11.4,22.29A.76.76,0,0,0,204.65,38.54Z"/><path class="cls-1" d="M366.36,62.23c11.06-.17,20.57-5.75,20.57-15.86V31.76c0-10.48-9.81-16.25-21.1-16.25h-71.3a.74.74,0,0,0-.74.74V91.7a.74.74,0,0,0,.74.74h24.78a.74.74,0,0,0,.73-.74V36.35a.74.74,0,0,1,.74-.73H356c3.2,0,4.47,2,4.47,4.84,0,2.68-1.27,5-4.47,5H331.46a.74.74,0,0,0-.74.74V62.41l32.36,29.83a.7.7,0,0,0,.5.2h33.63a.74.74,0,0,0,.5-1.28L366.36,62.23Z"/><path class="cls-1" d="M509.16,15.91,492.3,48.81a.74.74,0,0,1-1.31,0l-16.7-32.89a.74.74,0,0,0-.66-.41H454.4a.74.74,0,0,0-.66.41L437.05,48.81a.75.75,0,0,1-1.32,0l-16.86-32.9a.73.73,0,0,0-.65-.4h-28a.75.75,0,0,0-.66,1.08L428.12,92a.75.75,0,0,0,.66.4h15.15a.75.75,0,0,0,.66-.4l18.77-36.78a.74.74,0,0,1,1.31,0L483.44,92a.75.75,0,0,0,.66.4h15.15a.75.75,0,0,0,.66-.4l38.51-75.45a.75.75,0,0,0-.66-1.08H509.81A.74.74,0,0,0,509.16,15.91Z"/><path class="cls-1" d="M550.43,15.92,512,91.37a.74.74,0,0,0,.66,1.07h27.82a.75.75,0,0,0,.66-.4l23.63-46.21a.74.74,0,0,1,1.31,0L589.75,92a.75.75,0,0,0,.66.4h27.82a.74.74,0,0,0,.66-1.07L580.5,15.92a.73.73,0,0,0-.65-.41H551.08A.73.73,0,0,0,550.43,15.92Z"/><path class="cls-1" d="M592.8,16.58l9.46,18.73a.75.75,0,0,0,.66.4h26.57a.74.74,0,0,1,.73.74V91.7a.74.74,0,0,0,.74.74h24.81a.74.74,0,0,0,.73-.74V36.45a.74.74,0,0,1,.74-.74H683.8a.75.75,0,0,0,.66-.4l9.46-18.73a.74.74,0,0,0-.66-1.07h-99.8A.74.74,0,0,0,592.8,16.58Z"/><path class="cls-1" d="M773.21,15.51H712a20.06,20.06,0,0,0-5.63.82.7.7,0,0,0-.45.37L693.44,41.41a.76.76,0,0,0-.08.33V77.35c0,7.29,8.42,15.09,18.59,15.09h61.26c10.16,0,18.58-7.8,18.58-15.09V62.89a.74.74,0,0,0-.74-.73H766.17a.74.74,0,0,0-.74.73v6.36a3,3,0,0,1-2.95,2.94H722.67a3,3,0,0,1-2.95-2.94V38.71a3,3,0,0,1,2.95-3h39.81a3,3,0,0,1,2.95,3v6.35a.74.74,0,0,0,.74.74h24.88a.74.74,0,0,0,.74-.74V30.6C791.79,23.31,783.37,15.51,773.21,15.51Z"/><path class="cls-1" d="M874.64,16.25V44.8a.74.74,0,0,1-.74.74H829.66a.74.74,0,0,1-.74-.74V16.25a.74.74,0,0,0-.74-.74H803.31a.74.74,0,0,0-.73.74V91.7a.74.74,0,0,0,.73.74h24.87a.74.74,0,0,0,.74-.74V63.15a.74.74,0,0,1,.74-.74H873.9a.74.74,0,0,1,.74.74V91.7a.74.74,0,0,0,.74.74h24.87a.74.74,0,0,0,.73-.74V16.25a.74.74,0,0,0-.73-.74H875.38A.74.74,0,0,0,874.64,16.25Z"/><path class="cls-1" d="M79.84,15.51H18.58C8.42,15.51,0,23.31,0,30.6V77.35a11.86,11.86,0,0,0,1.88,6.14.74.74,0,0,0,1.09.2l23.1-17.9a.73.73,0,0,0,.29-.58V38.71a3,3,0,0,1,2.95-3H68.85A3.21,3.21,0,0,1,72.06,39V69.25a2.94,2.94,0,0,1-2.94,2.94h-34a.75.75,0,0,0-.45.16L11.8,90.05A.74.74,0,0,0,12,91.34a20.29,20.29,0,0,0,6.56,1.1H79.84c10.16,0,18.58-7.8,18.58-15.09V42.8a.68.68,0,0,0-.08-.34L85,16.46a.75.75,0,0,0-.49-.38A20.16,20.16,0,0,0,79.84,15.51Z"/><path class="cls-1" d="M949.81,30h19.11l15.33-14.52a13,13,0,0,0-7.85-2.57H947.46c-8.93,0-14.69,9.29-14.69,16.89v9.74h17Z"/><path class="cls-1" d="M952.58,77.78S976.67,55,983.27,48.86s7.56-11.36,7.56-16.94V29.56a19.13,19.13,0,0,0-1.63-7.7L935.06,73.48a14.26,14.26,0,0,0-4.41,10.32V94.87h50.29c7.43,0,11.85-4.87,11.85-12.38V77.78Z"/><path class="cls-1" d="M918,3.47c0-1.12-.78-1.47-1.74-1.47h-1.61V6.74h1V5h.56l.86,1.71h1.13l-1-1.9A1.4,1.4,0,0,0,918,3.47Zm-2.34-.62h.52c.54,0,.82.15.82.62s-.28.71-.82.71h-.52Z"/><path class="cls-1" d="M916.36,0a4.37,4.37,0,1,0,4.37,4.37A4.37,4.37,0,0,0,916.36,0Zm0,7.94a3.58,3.58,0,1,1,3.57-3.57A3.57,3.57,0,0,1,916.36,7.94Z"/></svg>