<svg id="Layer_1" data-name="Layer 1" xmlns="http://www.w3.org/2000/svg" viewBox="0 0 55.6 29.5"><defs><style>.cls-1{fill:#fff;}</style></defs><path class="cls-1" d="M74.3.3H70.5a.43.43,0,0,0-.4.4V25.4a.43.43,0,0,1-.4.4H67.4a.43.43,0,0,1-.4-.4V.7a.43.43,0,0,0-.4-.4H62.8a.43.43,0,0,0-.4.4V27a2.69,2.69,0,0,0,2.7,2.7h6.6A2.69,2.69,0,0,0,74.4,27V.7C74.6.5,74.5.3,74.3.3Z" transform="translate(-47.2 -0.3)"/><path class="cls-1" d="M87,.3H77.9a.43.43,0,0,0-.4.4V12.2h-.8v4h.8V29.4a.43.43,0,0,0,.4.4H86a2.69,2.69,0,0,0,2.7-2.7V16A2.14,2.14,0,0,0,87,13.9v-.1a2.14,2.14,0,0,0,1.7-2.1V2A1.75,1.75,0,0,0,87,.3ZM84.2,25.4a.43.43,0,0,1-.4.4H82.4a.43.43,0,0,1-.4-.4V16.5a.43.43,0,0,1,.4-.4h1.4a.43.43,0,0,1,.4.4Zm0-13.6a.43.43,0,0,1-.4.4H82.4a.43.43,0,0,1-.4-.4V4.6a.43.43,0,0,1,.4-.4h1.4a.43.43,0,0,1,.4.4Z" transform="translate(-47.2 -0.3)"/><path class="cls-1" d="M57.9.3H48.5a.43.43,0,0,0-.4.4V13.8h-.9v4h.9v11a.9.9,0,0,0,.9.9h2.7a.9.9,0,0,0,.9-.9v-11h5.3a1.75,1.75,0,0,0,1.7-1.7V2A1.69,1.69,0,0,0,57.9.3ZM55.1,13.4a.43.43,0,0,1-.4.4H53a.43.43,0,0,1-.4-.4V4.6a.43.43,0,0,1,.4-.4h1.7a.43.43,0,0,1,.4.4Z" transform="translate(-47.2 -0.3)"/><path class="cls-1" d="M99.5,7.4h2.9a.43.43,0,0,0,.4-.4V1.5A1.16,1.16,0,0,0,101.6.3H93.5a1.9,1.9,0,0,0-1.9,1.9V27a2.69,2.69,0,0,0,2.7,2.7h5.8a2.69,2.69,0,0,0,2.7-2.7V12.4a.43.43,0,0,0-.4-.4H98a.43.43,0,0,0-.4.4v3.3a.43.43,0,0,0,.4.4h.4a.27.27,0,0,1,.3.3v9.1a.43.43,0,0,1-.4.4H96.5a.43.43,0,0,1-.4-.4V4.6a.43.43,0,0,1,.4-.4h2.7V7C99.2,7.3,99.3,7.4,99.5,7.4Z" transform="translate(-47.2 -0.3)"/></svg>